<mxfile host="app.diagrams.net" modified="2024-03-27T07:17:43.631Z" agent="Mozilla/5.0 (Windows NT 10.0; Win64; x64) AppleWebKit/537.36 (KHTML, like Gecko) Chrome/122.0.0.0 Safari/537.36" version="24.0.8" etag="KEzMv5ebr_s1ziOTJ4si" type="github">
  <diagram name="Page-1" id="U4v0dexcv987vxjrvJ0X">
    <mxGraphModel>
      <root>
        <mxCell id="0" />
        <mxCell id="1" parent="0" />
      </root>
    </mxGraphModel>
  </diagram>
</mxfile>
